HIERARCHY
ROOT Hips
{
	OFFSET 0.000000 93.385445 0.000000
	CHANNELS 6 Xposition Yposition Zposition Xrotation Yrotation Zrotation
	JOINT RightUpLeg
	{
		OFFSET -8.267204 -0.002556 0.000284
		CHANNELS 6 Xposition Yposition Zposition Xrotation Yrotation Zrotation
		JOINT RightLeg
		{
			OFFSET 0.000000 -42.978920 0.000356
			CHANNELS 6 Xposition Yposition Zposition Xrotation Yrotation Zrotation
			JOINT RightFoot
			{
				OFFSET 0.000000 -41.964985 0.000601
				CHANNELS 6 Xposition Yposition Zposition Xrotation Yrotation Zrotation
				JOINT RightToeBase
				{
					OFFSET 0.000000 -6.852513 15.501974
					CHANNELS 6 Xposition Yposition Zposition Xrotation Yrotation Zrotation
					End Site
					{
						OFFSET 0.000000 0.000000 16.948986
					}
				}
			}
		}
	}
	JOINT LeftUpLeg
	{
		OFFSET 8.267204 -0.004822 0.000536
		CHANNELS 6 Xposition Yposition Zposition Xrotation Yrotation Zrotation
		JOINT LeftLeg
		{
			OFFSET 0.000000 -42.978920 0.000356
			CHANNELS 6 Xposition Yposition Zposition Xrotation Yrotation Zrotation
			JOINT LeftFoot
			{
				OFFSET 0.000000 -41.964985 0.000601
				CHANNELS 6 Xposition Yposition Zposition Xrotation Yrotation Zrotation
				JOINT LeftToeBase
				{
					OFFSET 0.000000 -6.852513 15.501974
					CHANNELS 6 Xposition Yposition Zposition Xrotation Yrotation Zrotation
					End Site
					{
						OFFSET 0.000000 0.000000 16.948986
					}
				}
			}
		}
	}
	JOINT Spine
	{
		OFFSET 0.000000 10.062492 -1.118055
		CHANNELS 6 Xposition Yposition Zposition Xrotation Yrotation Zrotation
		JOINT Spine1
		{
			OFFSET 0.000000 11.181747 0.000000
			CHANNELS 3 Xrotation Yrotation Zrotation
			JOINT Spine2
			{
				OFFSET 0.000000 10.208565 0.001507
				CHANNELS 6 Xposition Yposition Zposition Xrotation Yrotation Zrotation
				JOINT Spine3
				{
					OFFSET 0.000000 10.197166 0.001508
					CHANNELS 6 Xposition Yposition Zposition Xrotation Yrotation Zrotation
					JOINT LeftShoulder
					{
						OFFSET 3.104119 8.005707 0.000000
						CHANNELS 6 Xposition Yposition Zposition Xrotation Yrotation Zrotation
						JOINT LeftArm
						{
							OFFSET 14.462845 0.000000 0.000000
							CHANNELS 3 Xrotation Yrotation Zrotation
							JOINT LeftForeArm
							{
								OFFSET 30.948917 0.000000 0.000000
								CHANNELS 3 Xrotation Yrotation Zrotation
								JOINT LeftHand
								{
									OFFSET 25.302570 0.000000 0.000000
									CHANNELS 3 Xrotation Yrotation Zrotation
									End Site
									{
										OFFSET 25.302567 0.000000 0.000000
									}
								}
							}
						}
					}
					JOINT RightShoulder
					{
						OFFSET -3.104119 8.005707 0.000000
						CHANNELS 6 Xposition Yposition Zposition Xrotation Yrotation Zrotation
						JOINT RightArm
						{
							OFFSET -14.462845 0.000000 0.000000
							CHANNELS 3 Xrotation Yrotation Zrotation
							JOINT RightForeArm
							{
								OFFSET -30.948917 0.000000 0.000000
								CHANNELS 3 Xrotation Yrotation Zrotation
								JOINT RightHand
								{
									OFFSET -25.302570 0.000000 0.000000
									CHANNELS 3 Xrotation Yrotation Zrotation
									End Site
									{
										OFFSET -25.302567 0.000000 0.000000
									}
								}
							}
						}
					}
					JOINT Neck
					{
						OFFSET 0.000000 14.283447 0.000000
						CHANNELS 6 Xposition Yposition Zposition Xrotation Yrotation Zrotation
						JOINT Head
						{
							OFFSET 0.000000 9.493164 -0.003241
							CHANNELS 6 Xposition Yposition Zposition Xrotation Yrotation Zrotation
							End Site
							{
								OFFSET 0.000000 9.493164 0.000000
							}
						}
					}
				}
			}
		}
	}
}
MOTION
Frames: 9
Frame Time: 0.016667
0.000000 93.385437 0.000000 -0.000000 0.000000 -0.000000 -8.267204 -0.002556 0.000284 -0.000000 0.000000 -0.000000 0.000000 -42.978920 0.000356 -0.000000 0.000000 -0.000000 -0.000001 -41.964985 0.000601 0.000000 0.000000 0.000000 -0.000001 -6.852512 15.501974 0.000000 0.000000 0.000000 8.267204 -0.004822 0.000536 -0.000000 0.000000 -0.000000 0.000000 -42.978920 0.000356 -0.000000 0.000000 -0.000000 0.000001 -41.964985 0.000601 0.000000 0.000000 0.000000 0.000001 -6.852512 15.501974 0.000000 0.000000 0.000000 0.000000 10.062492 -1.118055 -0.000000 0.000000 -0.000000 -0.000000 0.000000 -0.000000 0.000000 10.208565 0.001507 -0.000000 0.000000 -0.000000 0.000000 10.197151 0.001508 -0.000000 0.000000 -0.000000 3.104119 8.005707 0.000000 -0.000000 0.000000 -0.000000 -0.000000 0.000000 -0.000000 -0.000000 0.000000 -0.000000 -0.000000 0.000000 -0.000000 -3.104119 8.005707 0.000000 -0.000000 0.000000 -0.000000 -0.000000 0.000000 -0.000000 -0.000000 0.000000 -0.000000 -0.000000 0.000000 -0.000000 0.000000 14.283447 0.000000 -0.000000 0.000000 -0.000000 0.000000 9.493164 -0.003241 -0.000000 0.000000 -0.000000 
26.446779 7.930107 -60.514915 11.848298 6.080249 8.002852 -8.267206 -0.002553 0.000288 -97.802298 -26.856790 18.456633 0.000001 -42.978920 0.000359 54.227874 -6.705323 5.578562 -0.000002 -41.964989 0.000600 -6.360405 -24.584050 18.812955 0.000001 -6.852512 15.501969 0.000001 -0.000000 0.000000 8.267204 -0.004818 0.000537 -117.373249 -13.896033 41.691779 -0.000005 -42.978920 0.000358 55.419933 2.600298 -2.627970 0.000016 -41.964981 0.000604 23.973209 -9.266005 -18.207802 -0.000007 -6.852513 15.501981 -0.000000 -0.000003 -0.000001 -0.000003 10.062493 -1.118051 13.472364 -2.616786 1.522573 0.149958 -1.261578 0.474507 0.000001 10.208569 0.001512 5.970355 -1.261620 0.474323 -0.000000 10.197164 0.001507 10.313902 -0.911142 0.438259 3.104113 8.005702 -0.000002 -2.602481 -3.248186 -16.854766 -50.360815 -34.837093 -49.099570 -13.305442 -39.656089 -24.397960 19.477439 9.974815 -10.819786 -3.104120 8.005712 0.000000 -2.019383 8.158015 -1.955830 -60.874846 22.994638 80.613622 11.918402 68.716771 11.973641 25.224438 -20.362063 17.231710 -0.000001 14.283445 -0.000003 -3.146745 2.916864 -4.863008 -0.000000 9.493168 -0.003236 -41.690863 8.036202 -6.694697 
26.759619 8.130371 -60.815807 11.321255 5.941620 8.749290 -8.267204 -0.002554 0.000287 -97.249490 -26.667434 18.321636 0.000002 -42.978924 0.000354 54.179605 -5.384968 5.741786 -0.000002 -41.964989 0.000601 -6.490693 -25.370695 18.281638 -0.000001 -6.852512 15.501970 -0.000000 -0.000001 0.000000 8.267207 -0.004822 0.000538 -116.219917 -13.123415 42.170804 -0.000001 -42.978920 0.000357 54.265303 2.355147 -2.453996 0.000001 -41.964977 0.000602 24.415375 -9.127317 -18.545053 -0.000007 -6.852516 15.501980 0.000000 -0.000001 -0.000000 0.000001 10.062502 -1.118056 13.842877 -2.711061 1.322042 0.315247 -1.288975 0.377326 -0.000001 10.208574 0.001504 6.135678 -1.289014 0.377191 0.000000 10.197160 0.001514 10.438180 -0.938210 0.367205 3.104115 8.005712 0.000001 -2.928294 -3.429690 -16.808554 -50.543974 -34.692395 -49.193075 -13.306827 -39.461913 -24.283028 19.516625 9.931098 -10.869986 -3.104118 8.005710 0.000001 -2.258445 8.218024 -2.075023 -60.816940 23.000133 80.225148 11.252667 68.617405 12.551579 25.240650 -20.117979 17.213622 -0.000000 14.283446 0.000001 -3.226086 2.923306 -4.937188 0.000001 9.493181 -0.003244 -41.831914 8.095834 -6.815187 
26.762360 8.228134 -60.914581 10.667740 5.917775 9.207854 -8.267205 -0.002554 0.000292 -96.670796 -26.587925 18.363208 0.000002 -42.978924 0.000360 54.233498 -4.760234 5.758968 0.000002 -41.964993 0.000598 -6.702789 -25.856144 17.869605 0.000000 -6.852518 15.501975 -0.000000 0.000000 -0.000001 8.267211 -0.004815 0.000541 -115.271245 -12.610726 42.325217 -0.000003 -42.978912 0.000354 53.814893 2.182662 -2.486588 0.000003 -41.964977 0.000599 24.601701 -8.920149 -18.711469 0.000003 -6.852514 15.501980 0.000002 0.000001 0.000000 0.000003 10.062501 -1.118050 14.207840 -2.803351 1.167111 0.477847 -1.318584 0.300140 -0.000002 10.208564 0.001507 6.298286 -1.318621 0.300021 -0.000000 10.197162 0.001513 10.560346 -0.965567 0.311177 3.104117 8.005706 0.000002 -3.148798 -3.592294 -16.642847 -50.613529 -34.540840 -49.150407 -13.313477 -39.319012 -24.250612 19.571982 9.883170 -10.921241 -3.104120 8.005707 0.000003 -2.411580 8.284492 -2.022780 -60.716625 22.972238 79.962213 11.196392 68.569321 12.536649 25.208365 -19.895950 17.216433 -0.000001 14.283450 -0.000000 -3.272280 2.908924 -4.956387 0.000001 9.493153 -0.003247 -41.915734 8.084489 -6.854386 
26.664560 8.289436 -60.944275 9.998653 5.927338 9.543074 -8.267198 -0.002556 0.000292 -96.120528 -26.546698 18.474164 0.000003 -42.978924 0.000357 54.337526 -4.450703 5.720308 -0.000004 -41.964989 0.000600 -6.931646 -26.187507 17.524631 -0.000003 -6.852504 15.501973 0.000003 0.000001 -0.000001 8.267210 -0.004819 0.000543 -114.431193 -12.209854 42.357592 -0.000012 -42.978924 0.000357 53.611220 2.059970 -2.570092 0.000015 -41.964989 0.000599 24.700604 -8.712374 -18.816401 -0.000011 -6.852513 15.501968 0.000003 -0.000000 -0.000000 0.000005 10.062495 -1.118048 14.559028 -2.891533 1.038576 0.634206 -1.348099 0.234764 0.000002 10.208575 0.001509 6.454635 -1.348122 0.234626 0.000000 10.197163 0.001508 10.677778 -0.992024 0.263910 3.104117 8.005702 -0.000001 -3.321324 -3.733401 -16.452047 -50.650569 -34.416934 -49.071699 -13.352502 -39.195245 -24.244025 19.624976 9.831782 -10.970653 -3.104117 8.005707 -0.000001 -2.521471 8.354348 -1.926191 -60.623502 22.905232 79.769008 11.433666 68.546009 12.254807 25.149882 -19.696787 17.230453 0.000001 14.283443 0.000001 -3.310329 2.897911 -4.958988 -0.000000 9.493166 -0.003241 -41.986037 8.068566 -6.863099 
26.623325 8.367104 -61.006294 9.388770 5.906115 9.874772 -8.267205 -0.002555 0.000287 -95.642531 -26.485507 18.584222 0.000003 -42.978920 0.000355 54.466906 -4.214356 5.690160 -0.000005 -41.964981 0.000601 -7.131004 -26.452185 17.212867 -0.000001 -6.852511 15.501972 -0.000001 -0.000000 -0.000000 8.267205 -0.004826 0.000538 -113.623236 -11.796503 42.407432 -0.000006 -42.978912 0.000356 53.305064 1.983044 -2.575188 -0.000003 -41.964985 0.000601 24.844950 -8.563946 -18.948212 0.000017 -6.852511 15.501970 0.000003 0.000003 -0.000001 -0.000002 10.062497 -1.118047 14.899119 -2.979066 0.924365 0.785609 -1.378222 0.175713 -0.000004 10.208567 0.001506 6.606039 -1.378240 0.175571 0.000002 10.197168 0.001513 10.791490 -1.018494 0.221425 3.104118 8.005707 0.000002 -3.494394 -3.840473 -16.309040 -50.688661 -34.386280 -49.030557 -13.491619 -39.072148 -24.192047 19.642248 9.781194 -11.028293 -3.104119 8.005714 0.000001 -2.613412 8.428681 -1.890355 -60.590854 22.766854 79.622841 11.834213 68.534255 11.859911 25.069055 -19.522357 17.252040 -0.000002 14.283445 -0.000001 -3.366129 2.918337 -4.978527 0.000002 9.493156 -0.003244 -42.088756 8.118377 -6.881031 
26.588881 8.432793 -61.061111 8.862217 5.881266 10.145259 -8.267203 -0.002557 0.000288 -95.250444 -26.431630 18.696055 0.000008 -42.978916 0.000355 54.602161 -4.087543 5.657815 0.000004 -41.964981 0.000599 -7.302663 -26.638870 16.955895 0.000001 -6.852512 15.501972 0.000001 0.000000 -0.000000 8.267208 -0.004820 0.000537 -112.932827 -11.450974 42.434367 -0.000004 -42.978924 0.000351 53.041764 1.941695 -2.563768 0.000005 -41.964973 0.000597 24.971856 -8.453508 -19.056458 0.000006 -6.852513 15.501977 -0.000002 0.000001 0.000002 0.000001 10.062497 -1.118050 15.191678 -3.052764 0.830195 0.915859 -1.403607 0.126739 -0.000001 10.208584 0.001513 6.736289 -1.403620 0.126596 -0.000001 10.197159 0.001518 10.889313 -1.040730 0.186196 3.104117 8.005706 0.000000 -3.629260 -3.929286 -16.195850 -50.792975 -34.346088 -49.013127 -13.608895 -38.942481 -24.193100 19.680147 9.718741 -11.056912 -3.104117 8.005703 -0.000004 -2.682678 8.500780 -1.865382 -60.577146 22.619551 79.504146 12.246272 68.522643 11.472156 24.990288 -19.381949 17.277045 -0.000001 14.283453 0.000000 -3.414559 2.943266 -4.992923 -0.000002 9.493155 -0.003238 -42.178354 8.172589 -6.887699 
26.554844 8.489418 -61.117638 8.328798 5.852515 10.407736 -8.267206 -0.002558 0.000279 -94.874244 -26.377238 18.817142 0.000009 -42.978909 0.000360 54.755649 -3.998613 5.624515 -0.000002 -41.964985 0.000598 -7.480687 -26.811322 16.695515 -0.000002 -6.852509 15.501970 -0.000001 0.000000 -0.000000 8.267205 -0.004819 0.000529 -112.239413 -11.123708 42.448693 -0.000006 -42.978920 0.000357 52.779262 1.917149 -2.551987 -0.000005 -41.964977 0.000599 25.102591 -8.347949 -19.146981 0.000010 -6.852512 15.501969 0.000001 0.000003 0.000000 -0.000002 10.062502 -1.118059 15.474664 -3.118298 0.730861 1.041951 -1.424870 0.076133 0.000001 10.208572 0.001506 6.862383 -1.424877 0.075987 -0.000001 10.197167 0.001512 10.984034 -1.059971 0.149475 3.104117 8.005708 0.000002 -3.725260 -4.040655 -16.091022 -51.139416 -34.169005 -49.028734 -13.617883 -38.726203 -24.388031 19.812068 9.591840 -10.998349 -3.104120 8.005725 0.000004 -2.749618 8.584604 -1.825644 -60.559661 22.468763 79.349743 12.543901 68.483021 11.208388 24.924091 -19.252650 17.311005 0.000000 14.283444 0.000003 -3.449649 2.959099 -4.991623 0.000002 9.493164 -0.003239 -42.244358 8.200833 -6.873344 
26.526190 8.538040 -61.167061 7.868988 5.821045 10.622863 -8.267211 -0.002558 0.000280 -94.559181 -26.335247 18.932086 0.000002 -42.978920 0.000362 54.896816 -3.947859 5.598727 0.000004 -41.964985 0.000603 -7.635822 -26.950332 16.469377 0.000001 -6.852513 15.501970 0.000001 -0.000001 -0.000001 8.267200 -0.004827 0.000531 -111.644216 -10.858567 42.453242 0.000004 -42.978920 0.000355 52.561273 1.905519 -2.540403 -0.000004 -41.964985 0.000600 25.198670 -8.271539 -19.209000 0.000000 -6.852512 15.501973 -0.000002 0.000000 0.000000 -0.000005 10.062490 -1.118054 15.715075 -3.169560 0.646968 1.149115 -1.440933 0.033652 -0.000005 10.208561 0.001507 6.969545 -1.440936 0.033503 -0.000002 10.197162 0.001510 11.064521 -1.074773 0.118518 3.104118 8.005706 0.000003 -3.802567 -4.144062 -16.006099 -51.494084 -33.969174 -49.065760 -13.553695 -38.538864 -24.578924 19.978396 9.483970 -10.943485 -3.104119 8.005699 0.000002 -2.809019 8.665217 -1.787383 -60.525817 22.358264 79.191037 12.780812 68.449294 10.987776 24.865596 -19.142672 17.336548 -0.000000 14.283477 0.000000 -3.470812 2.970006 -4.982652 0.000003 9.493176 -0.003246 -42.284994 8.215228 -6.849538 
